<svg width="24" height="24" viewBox="0 0 24 24" fill="none" xmlns="http://www.w3.org/2000/svg">
<path d="M10.9443 1.4502H13.0557C14.8988 1.4502 16.3393 1.45081 17.4619 1.60156C18.6118 1.75658 19.5121 2.07758 20.2178 2.78223C20.9224 3.48787 21.2434 4.38821 21.3984 5.53809C21.5492 6.66171 21.5498 8.10127 21.5498 9.94434V14.0557C21.5498 15.8988 21.5492 17.3393 21.3984 18.4619C21.2434 19.6118 20.9224 20.5121 20.2178 21.2178C19.5121 21.9224 18.6118 22.2434 17.4619 22.3984C16.3383 22.5492 14.8987 22.5498 13.0557 22.5498H10.9443C9.10124 22.5498 7.66069 22.5492 6.53809 22.3984C5.38821 22.2434 4.48787 21.9224 3.78223 21.2178C3.07758 20.5121 2.75658 19.6118 2.60156 18.4619C2.45081 17.3383 2.4502 15.8987 2.4502 14.0557V9.94434C2.4502 8.10124 2.45081 6.66069 2.60156 5.53809C2.75658 4.38821 3.07758 3.48787 3.78223 2.78223C4.48787 2.07758 5.38821 1.75658 6.53809 1.60156C7.66171 1.45081 9.10127 1.4502 10.9443 1.4502ZM10.999 2.5498C9.0978 2.5498 7.72895 2.55124 6.68359 2.69141C5.78394 2.81213 5.18961 3.0299 4.74219 3.39453L4.55859 3.56055C4.09345 4.0268 3.82843 4.65623 3.69043 5.68457C3.55026 6.72895 3.54883 8.09879 3.54883 10V14C3.54883 15.9012 3.55026 17.272 3.69043 18.3164C3.82843 19.3438 4.09329 19.9732 4.55957 20.4395C5.02587 20.9057 5.65527 21.1706 6.68359 21.3086C7.72797 21.4488 9.09783 21.4502 10.999 21.4502H12.999C14.9002 21.4502 16.2711 21.4488 17.3154 21.3086C18.3428 21.1706 18.9722 20.9057 19.4385 20.4395C19.9048 19.9732 20.1696 19.3438 20.3076 18.3154C20.4478 17.272 20.4492 15.9012 20.4492 14V10C20.4492 8.09878 20.4478 6.72895 20.3076 5.68359C20.1696 4.65626 19.9048 4.02683 19.4385 3.56055C18.9722 3.09424 18.3428 2.8294 17.3145 2.69141C16.2711 2.55123 14.9002 2.5498 12.999 2.5498H10.999ZM8 13.4502H13C13.1459 13.4502 13.2855 13.5082 13.3887 13.6113C13.4918 13.7145 13.5498 13.8541 13.5498 14C13.5498 14.1459 13.4918 14.2855 13.3887 14.3887C13.2855 14.4918 13.1459 14.5498 13 14.5498H8C7.85413 14.5498 7.71447 14.4918 7.61133 14.3887C7.50818 14.2855 7.4502 14.1459 7.4502 14C7.4502 13.8541 7.50818 13.7145 7.61133 13.6113C7.71447 13.5082 7.85413 13.4502 8 13.4502ZM8 9.4502H16C16.1459 9.4502 16.2855 9.50818 16.3887 9.61133C16.4918 9.71447 16.5498 9.85413 16.5498 10C16.5498 10.1459 16.4918 10.2855 16.3887 10.3887C16.2855 10.4918 16.1459 10.5498 16 10.5498H8C7.85413 10.5498 7.71447 10.4918 7.61133 10.3887C7.50818 10.2855 7.4502 10.1459 7.4502 10C7.4502 9.85413 7.50818 9.71447 7.61133 9.61133C7.71447 9.50818 7.85413 9.4502 8 9.4502Z" fill="#003574" stroke="white" stroke-width="0.4"/>
</svg>
