<svg width="24" height="24" viewBox="0 0 24 24" fill="none" xmlns="http://www.w3.org/2000/svg">
<path d="M13.4241 2.5436C13.7523 2.2037 14.1449 1.93257 14.579 1.74604C15.0132 1.55951 15.4801 1.46131 15.9525 1.45717C16.425 1.45303 16.8936 1.54304 17.3309 1.72194C17.7682 1.90084 18.1655 2.16505 18.4996 2.49915C18.8337 2.83324 19.0979 3.23054 19.2768 3.66785C19.4557 4.10516 19.5457 4.57372 19.5416 5.04619C19.5374 5.51866 19.4392 5.98557 19.2527 6.41968C19.0662 6.85379 18.795 7.2464 18.4551 7.5746L17.9586 8.0711L17.9796 8.0921C18.2235 8.33592 18.4169 8.62539 18.5488 8.94399C18.6808 9.26258 18.7486 9.60404 18.7486 9.94888C18.7485 10.2937 18.6805 10.6351 18.5484 10.9537C18.4164 11.2722 18.2228 11.5616 17.9789 11.8053L15.6411 14.1408C15.6065 14.1767 15.5652 14.2052 15.5194 14.2249C15.4737 14.2445 15.4244 14.2549 15.3747 14.2553C15.3249 14.2557 15.2755 14.2463 15.2294 14.2274C15.1833 14.2085 15.1414 14.1807 15.1062 14.1455C15.071 14.1103 15.0432 14.0684 15.0243 14.0223C15.0055 13.9762 14.996 13.9269 14.9964 13.8771C14.9968 13.8273 15.0072 13.7781 15.0268 13.7323C15.0465 13.6866 15.0751 13.6452 15.1109 13.6106L17.4486 11.2751C17.6228 11.101 17.7609 10.8943 17.8552 10.6667C17.9495 10.4392 17.998 10.1954 17.998 9.9491C17.998 9.70283 17.9495 9.45897 17.8552 9.23145C17.7609 9.00393 17.6228 8.79721 17.4486 8.6231L17.4284 8.60135L8.46288 17.5668C8.12831 17.9014 7.70955 18.1393 7.25088 18.2553L2.43363 19.4748C2.30766 19.5067 2.17559 19.5052 2.05036 19.4706C1.92513 19.436 1.81103 19.3695 1.71923 19.2776C1.62744 19.1856 1.56111 19.0714 1.52673 18.9461C1.49235 18.8208 1.49111 18.6888 1.52313 18.5628L2.74713 13.7418C2.86337 13.2841 3.10097 12.8661 3.43488 12.5321L13.4241 2.5436ZM17.9241 3.07385C17.3976 2.54743 16.6835 2.25171 15.9389 2.25171C15.1943 2.25171 14.4802 2.54743 13.9536 3.07385L3.96513 13.0623C3.72664 13.3009 3.55693 13.5994 3.47388 13.9263L2.24913 18.7481L7.06638 17.5293C7.39395 17.4463 7.69299 17.2763 7.93188 17.0373L17.9249 7.0436C18.4513 6.51702 18.747 5.80292 18.747 5.05835C18.747 4.31377 18.4513 3.59967 17.9249 3.0731M3.00063 20.4911C3.28563 20.7618 3.60963 21.0236 3.96063 21.2636C4.98138 21.9611 6.27363 22.5011 7.49913 22.5011C8.41563 22.5011 9.29313 22.1636 10.0941 21.6941C10.8966 21.2238 11.6474 20.6066 12.3141 20.0163C12.5751 19.7838 12.8204 19.5588 13.0506 19.3488C13.4196 19.0113 13.7504 18.7076 14.0534 18.4623C14.2949 18.2648 14.4954 18.1268 14.6549 18.0483C14.7107 18.0196 14.7699 17.9979 14.8311 17.9838C14.8468 17.9814 14.8626 17.9807 14.8784 17.9816H14.8806C15.0696 18.0446 15.2256 18.2028 15.3756 18.5021C15.5039 18.7556 15.6029 19.0586 15.7146 19.4021L15.7851 19.6166C16.0499 20.4161 16.4301 21.4638 17.5326 21.7398C18.0156 21.8606 18.4379 21.7646 18.8166 21.5681C19.1781 21.3806 19.5164 21.0926 19.8366 20.8173L19.8479 20.8076C20.5086 20.2413 21.1829 19.6631 22.1856 19.4958C22.2354 19.4891 22.2833 19.4724 22.3264 19.4469C22.3696 19.4213 22.4072 19.3873 22.437 19.3469C22.4668 19.3065 22.4882 19.2605 22.4999 19.2117C22.5116 19.1629 22.5134 19.1122 22.5052 19.0627C22.497 19.0132 22.4789 18.9658 22.452 18.9234C22.4251 18.8811 22.39 18.8445 22.3487 18.8159C22.3074 18.7873 22.2609 18.7673 22.2117 18.7571C22.1626 18.7469 22.1119 18.7466 22.0626 18.7563C20.8521 18.9581 20.0391 19.6563 19.3979 20.2053L19.3491 20.2473C19.0131 20.5353 18.7416 20.7618 18.4716 20.9028C18.2166 21.0348 17.9826 21.0791 17.7149 21.0123C17.0624 20.8488 16.7811 20.2383 16.4969 19.3811L16.4331 19.1861C16.3221 18.8433 16.2021 18.4743 16.0461 18.1646C15.8564 17.7881 15.5789 17.4243 15.1176 17.2706C14.8356 17.1761 14.5514 17.2631 14.3241 17.3756C14.0871 17.4918 13.8359 17.6726 13.5801 17.8796C13.2636 18.1368 12.9014 18.4683 12.5174 18.8201C12.2853 19.0334 12.0515 19.2449 11.8161 19.4546C11.1599 20.0366 10.4534 20.6141 9.71538 21.0468C8.97738 21.4796 8.23263 21.7511 7.49913 21.7511C6.47463 21.7511 5.32938 21.2906 4.38213 20.6441C4.20948 20.5262 4.04183 20.401 3.87963 20.2691L3.00063 20.4911Z" fill="#003574"/>
</svg>
